# xmcd
#
# Track frame offsets:
#	150
#	17530
#	38662
#	62385
#	81932
#	100215
#	120962
#	143792
#	163872
#	185947
#	206530
#
# Disc length: 3153 seconds
#
# Revision: 1
# Processed by: cddbd v1.5.2PL0 Copyright (c) Steve Scherf et al.
# Submitted via: audiograbber 1.83.01
#
DISCID=8c0c4f0b
DTITLE=Alan Voight - Portraits...from the Soul Ranch
DYEAR=2009
DGENRE=Blues
TTITLE0=Beverly Hills Blues
TTITLE1=Fire In His Eyes
TTITLE2=Wild Women do
TTITLE3=My Baby Does It
TTITLE4=Walk On By
TTITLE5=She's Gone Away
TTITLE6=Just Dropped In
TTITLE7=Wastin' My Time
TTITLE8=Street Fightin' Man
TTITLE9=Without You
TTITLE10=Burnin' Sky
EXTD=
EXTT0=
EXTT1=
EXTT2=
EXTT3=
EXTT4=
EXTT5=
EXTT6=
EXTT7=
EXTT8=
EXTT9=
EXTT10=
PLAYORDER=
